<svg xmlns="http://www.w3.org/2000/svg" width="500" height="500"><defs><linearGradient x1="0" y1="0" x2="1" y2="0" gradientUnits="userSpaceOnUse" gradientTransform="scale(243.794 -243.794) rotate(57.339 18.392 11.942)" spreadMethod="pad" id="j"><stop offset="0" stop-color="#070e4c"/><stop offset="1" stop-color="#29abe2"/></linearGradient><linearGradient x1="0" y1="0" x2="1" y2="0" gradientUnits="userSpaceOnUse" gradientTransform="rotate(-122.661 2617.57 150.101) scale(243.794)" spreadMethod="pad" id="p"><stop offset="0" stop-color="#070e4c"/><stop offset="1" stop-color="#29abe2"/></linearGradient><linearGradient x1="0" y1="0" x2="1" y2="0" gradientUnits="userSpaceOnUse" gradientTransform="rotate(-52.334 4215.771 -3212.782) scale(475.858)" spreadMethod="pad" id="d"><stop offset="0" stop-color="#070e4c"/><stop offset="1" stop-color="#29abe2"/></linearGradient><linearGradient x1="0" y1="0" x2="1" y2="0" gradientUnits="userSpaceOnUse" gradientTransform="rotate(180 2079.68 1581.16) scale(635.645)" spreadMethod="pad" id="n"><stop offset="0" stop-color="#0ff"/><stop offset=".048" stop-color="#0ff"/><stop offset=".432" stop-color="#29abe2"/><stop offset="1" stop-color="#2e3192"/></linearGradient><linearGradient x1="0" y1="0" x2="1" y2="0" gradientUnits="userSpaceOnUse" gradientTransform="matrix(692.155 0 0 -692.155 3891.5 3069.87)" spreadMethod="pad" id="f"><stop offset="0" stop-color="#2e3192"/><stop offset=".568" stop-color="#29abe2"/><stop offset=".952" stop-color="#0ff"/><stop offset="1" stop-color="#0ff"/></linearGradient><linearGradient x1="0" y1="0" x2="1" y2="0" gradientUnits="userSpaceOnUse" gradientTransform="scale(-247.502 247.502) rotate(72.229 -20.218 -5.063)" spreadMethod="pad" id="l"><stop offset="0" stop-color="#070e4c"/><stop offset=".589" stop-color="#1d73ac"/><stop offset="1" stop-color="#29abe2"/></linearGradient><linearGradient x1="0" y1="0" x2="1" y2="0" gradientUnits="userSpaceOnUse" gradientTransform="matrix(753.379 0 0 -753.379 4125.76 3162.32)" spreadMethod="pad" id="h"><stop offset="0" stop-color="#2e3192"/><stop offset=".568" stop-color="#29abe2"/><stop offset="1" stop-color="#0ff"/></linearGradient><linearGradient x1="0" y1="0" x2="1" y2="0" gradientUnits="userSpaceOnUse" gradientTransform="scale(458.095 -458.095) rotate(-52.334 -4.436 -13.715)" spreadMethod="pad" id="b"><stop offset="0" stop-color="#070e4c"/><stop offset="1" stop-color="#29abe2"/></linearGradient><linearGradient x1="0" y1="0" x2="1" y2="0" gradientUnits="userSpaceOnUse" gradientTransform="rotate(72.229 -794.481 4516.416) scale(247.502)" spreadMethod="pad" id="r"><stop offset="0" stop-color="#070e4c"/><stop offset=".589" stop-color="#1d73ac"/><stop offset="1" stop-color="#29abe2"/></linearGradient><clipPath clipPathUnits="userSpaceOnUse" id="a"><path d="M4036.54 4143.53l353.71-224.46v514.24c0 33.8-38.22 53.42-65.67 33.68l-295.18-212.28c-4.94-5.61-58.33-68.87 7.14-111.18z"/></clipPath><clipPath clipPathUnits="userSpaceOnUse" id="k"><path d="M4811.47 3824.86c68.47 44.26 6.88 111.47 6.74 111.62l-181.74 130.7c-27.43 19.74-65.69.11-65.69-33.68v-363.83l240.69 155.19z"/></clipPath><clipPath clipPathUnits="userSpaceOnUse" id="g"><path d="M4895.19 3800.22c0 50.66-24.56 98.58-65.7 128.15l-11.28 8.11c.14-.15 61.73-67.36-6.74-111.62l-483.92-312.03c-42.28-27.26-68-74.44-68-124.77 0-24.84.01-506.46.01-863.64 0-50.67 24.55-98.58 65.69-128.15l11.28-8.12c-.13.15-61.72 67.37 6.74 111.62l483.94 312.04c42.26 27.26 67.98 74.45 67.98 124.77v863.64z"/></clipPath><clipPath clipPathUnits="userSpaceOnUse" id="m"><path d="M3523.72 3800.22c0 50.66 24.55 98.58 65.68 128.15l11.28 8.11c-.14-.15-61.72-67.36 6.75-111.62l483.93-312.03c42.26-27.26 67.99-74.44 67.99-124.77 0-24.84-.01-506.46-.01-863.64 0-50.67-24.55-98.58-65.7-128.15l-11.28-8.12c.15.15 61.74 67.37-6.73 111.62l-483.93 312.04c-42.27 27.26-67.99 74.45-67.99 124.77v54.02c.01 310.77.01 501.55.01 809.62z"/></clipPath><clipPath clipPathUnits="userSpaceOnUse" id="e"><path d="M4474 3784.33c0 50.31-25.73 97.49-67.99 124.77l-369.47 234.43c-68.48 44.26-6.9 111.48-6.74 111.62l-11.29-8.11c-41.15-29.58-65.69-77.48-65.69-128.15V2020.82c0-50.66 24.54-98.55 65.69-128.14l11.29-8.1c-.16.13-61.74 67.35 6.74 111.61l369.47 234.44c76.92 49.61 67.99 125.84 67.99 178.8l-.03 53.47c0 141.57.03 1178.19.03 1321.43z"/></clipPath><clipPath clipPathUnits="userSpaceOnUse" id="o"><path d="M4075.63 2499.77c65.21-42.16 12.48-105.09 7.19-111.1l-182.19-131.02c-27.44-19.73-65.7-.13-65.7 33.67v363.64l240.7-155.19z"/></clipPath><clipPath clipPathUnits="userSpaceOnUse" id="c"><path d="M4036.54 1996.19l353.71 224.47v-514.24c0-33.8-38.22-53.42-65.67-33.69l-295.18 212.28c-4.94 5.6-58.33 68.88 7.14 111.18z"/></clipPath><clipPath clipPathUnits="userSpaceOnUse" id="q"><path d="M3607.43 3824.86c-68.47 44.26-6.89 111.47-6.75 111.62l181.75 130.7c27.44 19.74 65.69.11 65.69-33.68v-363.83l-240.69 155.19z"/></clipPath><clipPath clipPathUnits="userSpaceOnUse" id="i"><path d="M4343.27 2499.77c-65.21-42.16-12.47-105.09-7.2-111.1l182.2-131.02c27.44-19.73 65.69-.13 65.69 33.67v363.64l-240.69-155.19z"/></clipPath></defs><g clip-path="url(#a)" transform="matrix(.21094 0 0 -.13486 -646.062 662.168)"><path d="M4036.54 4143.53l353.71-224.46v514.24c0 33.8-38.22 53.42-65.67 33.68l-295.18-212.28c-4.94-5.61-58.33-68.87 7.14-111.18" fill="url(#b)"/></g><g clip-path="url(#c)" transform="matrix(.21094 0 0 -.13486 -646.062 662.168)"><path d="M4036.54 1996.19l353.71 224.47v-514.24c0-33.8-38.22-53.42-65.67-33.69l-295.18 212.28c-4.94 5.6-58.33 68.88 7.14 111.18" fill="url(#d)"/></g><g clip-path="url(#e)" transform="matrix(.21094 0 0 -.13486 -646.062 662.168)"><path d="M4474 3784.33c0 50.31-25.73 97.49-67.99 124.77l-369.47 234.43c-68.48 44.26-6.9 111.48-6.74 111.62l-11.29-8.11c-41.15-29.58-65.69-77.48-65.69-128.15V2020.82c0-50.66 24.54-98.55 65.69-128.14l11.29-8.1c-.16.13-61.74 67.35 6.74 111.61l369.47 234.44c76.92 49.61 67.99 125.84 67.99 178.8l-.03 53.47c0 141.57.03 1178.19.03 1321.43" fill="url(#f)"/></g><g clip-path="url(#g)" transform="matrix(.21094 0 0 -.13486 -646.062 662.168)"><path d="M4895.19 3800.22c0 50.66-24.56 98.58-65.7 128.15l-11.28 8.11c.14-.15 61.73-67.36-6.74-111.62l-483.92-312.03c-42.28-27.26-68-74.44-68-124.77 0-24.84.01-506.46.01-863.64 0-50.67 24.55-98.58 65.69-128.15l11.28-8.12c-.13.15-61.72 67.37 6.74 111.62l483.94 312.04c42.26 27.26 67.98 74.45 67.98 124.77v863.64" fill="url(#h)"/></g><g clip-path="url(#i)" transform="matrix(.21094 0 0 -.13486 -646.062 662.168)"><path d="M4343.27 2499.77c-65.21-42.16-12.47-105.09-7.2-111.1l182.2-131.02c27.44-19.73 65.69-.13 65.69 33.67v363.64l-240.69-155.19" fill="url(#j)"/></g><g clip-path="url(#k)" transform="matrix(.21094 0 0 -.13486 -646.062 662.168)"><path d="M4811.47 3824.86c68.47 44.26 6.88 111.47 6.74 111.62l-181.74 130.7c-27.43 19.74-65.69.11-65.69-33.68v-363.83l240.69 155.19" fill="url(#l)"/></g><g clip-path="url(#m)" transform="matrix(.21094 0 0 -.13486 -646.062 662.168)"><path d="M3523.72 3800.22c0 50.66 24.55 98.58 65.68 128.15l11.28 8.11c-.14-.15-61.72-67.36 6.75-111.62l483.93-312.03c42.26-27.26 67.99-74.44 67.99-124.77 0-24.84-.01-506.46-.01-863.64 0-50.67-24.55-98.58-65.7-128.15l-11.28-8.12c.15.15 61.74 67.37-6.73 111.62l-483.93 312.04c-42.27 27.26-67.99 74.45-67.99 124.77v54.02c.01 310.77.01 501.55.01 809.62" fill="url(#n)"/></g><g clip-path="url(#o)" transform="matrix(.21094 0 0 -.13486 -646.062 662.168)"><path d="M4075.63 2499.77c65.21-42.16 12.48-105.09 7.19-111.1l-182.19-131.02c-27.44-19.73-65.7-.13-65.7 33.67v363.64l240.7-155.19" fill="url(#p)"/></g><g clip-path="url(#q)" transform="matrix(.21094 0 0 -.13486 -646.062 662.168)"><path d="M3607.43 3824.86c-68.47 44.26-6.89 111.47-6.75 111.62l181.75 130.7c27.44 19.74 65.69.11 65.69-33.68v-363.83l-240.69 155.19" fill="url(#r)"/></g></svg>